<svg width="21" height="21" viewBox="0 0 21 21" fill="none" xmlns="http://www.w3.org/2000/svg">
<path fill-rule="evenodd" clip-rule="evenodd" d="M16.3287 17.743C14.6048 19.1536 12.4013 20 10 20C4.47715 20 0 15.5228 0 10C0 4.47715 4.47715 0 10 0C15.5228 0 20 4.47715 20 10C20 12.4013 19.1536 14.6049 17.7429 16.3288L20.7071 19.293C21.0976 19.6835 21.0976 20.3167 20.7071 20.7072C20.3166 21.0977 19.6834 21.0977 19.2929 20.7072L16.3287 17.743ZM18 10C18 14.4183 14.4183 18 10 18C5.58172 18 2 14.4183 2 10C2 5.58172 5.58172 2 10 2C14.4183 2 18 5.58172 18 10Z" fill="#1E1E1E"/>
</svg>
