<svg width="24" height="24" viewBox="0 0 24 24" fill="none" xmlns="http://www.w3.org/2000/svg">
<path d="M8 14C8.55228 14 9 14.4477 9 15V18C9 18.5523 8.55228 19 8 19C7.44772 19 7 18.5523 7 18V15C7 14.4477 7.44772 14 8 14Z" fill="#1E1E1E"/>
<path d="M13 15C13 14.4477 12.5523 14 12 14C11.4477 14 11 14.4477 11 15V18C11 18.5523 11.4477 19 12 19C12.5523 19 13 18.5523 13 18V15Z" fill="#1E1E1E"/>
<path d="M16 14C16.5523 14 17 14.4477 17 15V18C17 18.5523 16.5523 19 16 19C15.4477 19 15 18.5523 15 18V15C15 14.4477 15.4477 14 16 14Z" fill="#1E1E1E"/>
<path fill-rule="evenodd" clip-rule="evenodd" d="M8 1C7.44772 1 7 1.44772 7 2V3H6.7346C5.24165 3 3.97589 4.09779 3.76475 5.57573L3.13271 10H2.00001C1.70348 10 1.42225 10.1316 1.23226 10.3593C1.04226 10.5869 0.963094 10.8871 1.01614 11.1789L2.71755 20.5367C2.97691 21.9631 4.2193 23 5.66916 23H18.3309C19.7807 23 21.0231 21.9631 21.2825 20.5367L22.9839 11.1789C23.0369 10.8871 22.9578 10.5869 22.7678 10.3593C22.5778 10.1316 22.2965 10 22 10H20.8673L20.2353 5.57574C20.0241 4.09779 18.7584 3 17.2654 3H17V2C17 1.44772 16.5523 1 16 1H8ZM17 5C17 5.55228 16.5523 6 16 6H8C7.44772 6 7 5.55228 7 5H6.7346C6.23695 5 5.81503 5.36593 5.74465 5.85858L5.15302 10H18.847L18.2554 5.85858C18.185 5.36593 17.7631 5 17.2654 5H17ZM9 4V3H15V4H9ZM3.19822 12L4.68529 20.1789C4.77174 20.6544 5.18587 21 5.66916 21H18.3309C18.8141 21 19.2283 20.6544 19.3147 20.1789L20.8018 12H3.19822Z" fill="#1E1E1E"/>
</svg>
