<svg width="24" height="24" viewBox="0 0 24 24" fill="none" xmlns="http://www.w3.org/2000/svg">
<path fill-rule="evenodd" clip-rule="evenodd" d="M1.12339 3.51879C1.29903 3.19885 1.63502 3 2 3H22C22.365 3 22.701 3.19885 22.8766 3.51879C23.0522 3.83874 23.0396 4.22895 22.8437 4.53688L16 15.2912V19C16 19.3788 15.786 19.725 15.4472 19.8944L9.44721 22.8944C9.13723 23.0494 8.76909 23.0329 8.47427 22.8507C8.17945 22.6684 8 22.3466 8 22V15.2912L1.15634 4.53688C0.96039 4.22895 0.947763 3.83874 1.12339 3.51879ZM3.82167 5L9.84366 14.4631C9.94577 14.6236 10 14.8098 10 15V20.382L14 18.382V15C14 14.8098 14.0542 14.6236 14.1563 14.4631L20.1783 5H3.82167Z" fill="#1E1E1E"/>
</svg>
